<?xml version="1.0" encoding="UTF-8" standalone="no"?>
<svg width="100px" height="100px" viewBox="0 0 100 100" version="1.1" xmlns="http://www.w3.org/2000/svg" xmlns:xlink="http://www.w3.org/1999/xlink" xmlns:sketch="http://www.bohemiancoding.com/sketch/ns">
    <!-- Generator: Sketch 3.5.2 (25235) - http://www.bohemiancoding.com/sketch -->
    <title>Circle</title>
    <desc>Created with Sketch.</desc>
    <defs></defs>
    <g id="Extras" stroke="none" stroke-width="1" fill="none" fill-rule="evenodd" sketch:type="MSPage">
        <g id="Group-2" sketch:type="MSLayerGroup" transform="translate(-101.000000, -70.000000)" fill="">
            <g id="Logo" transform="translate(89.000000, 70.000000)" sketch:type="MSShapeGroup">
                <g id="logo" transform="translate(12.000000, 0.000000)">
                    <path d="M50,100 C77.6142375,100 100,77.6142375 100,50 C100,22.3857625 77.6142375,0 50,0 C22.3857625,0 0,22.3857625 0,50 C0,77.6142375 22.3857625,100 50,100 Z M50,88.0434783 C71.0108329,88.0434783 88.0434783,71.0108329 88.0434783,50 C88.0434783,28.9891671 71.0108329,11.9565217 50,11.9565217 C28.9891671,11.9565217 11.9565217,28.9891671 11.9565217,50 C11.9565217,71.0108329 28.9891671,88.0434783 50,88.0434783 Z" id="Circle"></path>
                </g>
            </g>
        </g>
    </g>
</svg>