<?xml version="1.0" encoding="UTF-8" standalone="no"?>
<svg width="50px" height="50px" viewBox="0 0 50 50" version="1.1" xmlns="http://www.w3.org/2000/svg" xmlns:xlink="http://www.w3.org/1999/xlink" xmlns:sketch="http://www.bohemiancoding.com/sketch/ns">
    <!-- Generator: Sketch 3.5.2 (25235) - http://www.bohemiancoding.com/sketch -->
    <title>Logo</title>
    <desc>Created with Sketch.</desc>
    <defs></defs>
    <g id="Page-1" stroke="none" stroke-width="1" fill="none" fill-rule="evenodd" sketch:type="MSPage">
        <g id="Desktop-HD" sketch:type="MSArtboardGroup" transform="translate(-1139.000000, -15.000000)">
            <g id="Logo" sketch:type="MSLayerGroup" transform="translate(906.000000, 15.000000)">
                <g transform="translate(233.000000, 0.000000)" sketch:type="MSShapeGroup">
                    <path d="M25,50 C38.8071187,50 50,38.8071187 50,25 C50,11.1928813 38.8071187,0 25,0 C11.1928813,0 0,11.1928813 0,25 C0,38.8071187 11.1928813,50 25,50 Z M25,44.0217391 C35.5054164,44.0217391 44.0217391,35.5054164 44.0217391,25 C44.0217391,14.4945836 35.5054164,5.97826087 25,5.97826087 C14.4945836,5.97826087 5.97826087,14.4945836 5.97826087,25 C5.97826087,35.5054164 14.4945836,44.0217391 25,44.0217391 Z" id="Circle" fill=""></path>
                    <g id="Plus" transform="translate(15.000000, 15.000000)" fill="#404040">
                        <rect id="Emdadna---01" x="0" y="6.94444444" width="18.75" height="4.86111111"></rect>
                        <path d="M11.8055556,1.16865582e-15 L11.8055556,18.75 L6.94444444,18.75 L6.94444444,0 L11.8055556,1.16865582e-15 L11.8055556,1.16865582e-15 Z" id="Emdadna---02"></path>
                    </g>
                </g>
            </g>
        </g>
    </g>
</svg>